<?xml version="1.0" standalone="no"?><!DOCTYPE svg PUBLIC "-//W3C//DTD SVG 1.1//EN" "http://www.w3.org/Graphics/SVG/1.1/DTD/svg11.dtd"><svg t="1634094402164" class="icon" viewBox="0 0 1024 1024" version="1.1" xmlns="http://www.w3.org/2000/svg" p-id="10569" xmlns:xlink="http://www.w3.org/1999/xlink" width="200" height="200"><defs><style type="text/css"></style></defs><path d="M511.738 93.2c-140.67 0-264.927 69.145-341.01 175.089v-70.476c0-21.668-17.617-39.23-39.347-39.23s-39.347 17.563-39.347 39.23v156.92c0 21.662 17.617 39.23 39.347 39.23h170.503c21.73 0 39.347-17.567 39.347-39.23 0-21.668-17.617-39.23-39.347-39.23h-68.442c61.73-86.988 163.285-143.843 278.297-143.843 188.328 0 341.005 152.222 341.005 339.994 0 187.768-152.677 339.993-341.005 339.993-158.736 0-291.746-108.292-329.758-254.704l-0.683 0.212c-5.301-15.411-19.542-26.66-36.802-26.66-21.73 0-39.347 17.564-39.347 39.226 0 3.867 1.164 7.369 2.206 10.893l-0.41 0.13c0.259 0.95 0.733 1.8 0.996 2.744 0.29 0.762 0.482 1.524 0.817 2.264 49.925 175.47 210.99 304.354 402.984 304.354 231.794 0 419.7-187.35 419.7-418.453-0.002-231.108-187.91-418.454-419.704-418.454z m0 176.531c-21.73 0-39.347 17.563-39.347 39.23v235.38c0 21.668 17.617 39.23 39.347 39.23h170.503c21.73 0 39.347-17.563 39.347-39.225 0-21.672-17.617-39.23-39.347-39.23H551.085V308.96c0-21.667-17.618-39.23-39.348-39.23z" p-id="10570"></path></svg>
