<?xml version="1.0" standalone="no"?><!DOCTYPE svg PUBLIC "-//W3C//DTD SVG 1.1//EN" "http://www.w3.org/Graphics/SVG/1.1/DTD/svg11.dtd"><svg t="1673017610585" class="icon" viewBox="0 0 1024 1024" version="1.1" xmlns="http://www.w3.org/2000/svg" p-id="68363" xmlns:xlink="http://www.w3.org/1999/xlink" width="64" height="64"><path d="M549.44 640a96.032 96.032 0 0 1 181.12 0h37.12a32 32 0 1 1 0 64h-37.12a96.032 96.032 0 0 1-181.12 0H256.096a31.968 31.968 0 1 1 0-64h293.408z m-256-320a96.032 96.032 0 0 1 181.12 0h293.376a31.968 31.968 0 1 1 0 64h-293.408a96.032 96.032 0 0 1-181.056 0H256.288a32 32 0 1 1 0-64h37.184zM384 384a32 32 0 1 0 0-64 32 32 0 0 0 0 64z m256 320a32 32 0 1 0 0-64 32 32 0 0 0 0 64z" p-id="68364"></path></svg>
