<?xml version="1.0" standalone="no"?><!DOCTYPE svg PUBLIC "-//W3C//DTD SVG 1.1//EN" "http://www.w3.org/Graphics/SVG/1.1/DTD/svg11.dtd"><svg t="1673020822463" class="icon" viewBox="0 0 1024 1024" version="1.1" xmlns="http://www.w3.org/2000/svg" p-id="105250" xmlns:xlink="http://www.w3.org/1999/xlink" width="64" height="64"><path d="M864 896h-704c-19.2 0-32-12.8-32-32v-704c0-19.2 12.8-32 32-32h704c19.2 0 32 12.8 32 32v704c0 19.2-12.8 32-32 32zM192 832h640V192H192v640z" p-id="105251"></path><path d="M736 480c-12.8-12.8-32-12.8-44.8 0L544 627.2V320c0-19.2-12.8-32-32-32s-32 12.8-32 32v307.2L332.8 480c-12.8-12.8-32-12.8-44.8 0s-12.8 32 0 44.8l204.8 204.8c12.8 12.8 32 12.8 44.8 0l204.8-204.8c6.4-12.8 6.4-32-6.4-44.8z" p-id="105252"></path></svg>