<?xml version="1.0" standalone="no"?><!DOCTYPE svg PUBLIC "-//W3C//DTD SVG 1.1//EN" "http://www.w3.org/Graphics/SVG/1.1/DTD/svg11.dtd"><svg t="1673022452437" class="icon" viewBox="0 0 1024 1024" version="1.1" xmlns="http://www.w3.org/2000/svg" p-id="136744" xmlns:xlink="http://www.w3.org/1999/xlink" width="64" height="64"><path d="M753.69921875 905.92578125H271.00390625c-53.34960938 0-96.6796875-43.33007813-96.6796875-96.6796875V218.26953125c0-53.34960938 43.33007813-96.6796875 96.6796875-96.6796875h339.609375c18.10546875 0 34.98046875 7.82226563 46.66992188 21.62109375l178.85742187 183.69140625 1.14257813 1.49414063c8.4375 10.72265625 13.09570313 24.16992188 13.09570312 37.79296875v443.14453124c0 53.26171875-43.33007813 96.59179688-96.6796875 96.59179688zM271.00390625 191.90234375c-14.50195313 0-26.3671875 11.86523438-26.3671875 26.3671875v591.06445313c0 14.50195313 11.86523438 26.3671875 26.3671875 26.3671875H753.69921875c14.50195313 0 26.3671875-11.86523438 26.3671875-26.3671875V370.05664062L606.5703125 191.90234375H271.00390625z" p-id="136745"></path><path d="M815.22265625 424.63671875H622.47851563c-36.03515625 0-65.30273438-29.35546875-65.30273438-65.30273438V156.74609375c0-19.42382813 15.73242188-35.15625 35.15625-35.15625s35.15625 15.73242188 35.15625 35.15625v197.578125H815.22265625c19.42382813 0 35.15625 15.73242188 35.15625 35.15625s-15.73242188 35.15625-35.15625 35.15625z" p-id="136746"></path></svg>