<?xml version="1.0" standalone="no"?><!DOCTYPE svg PUBLIC "-//W3C//DTD SVG 1.1//EN" "http://www.w3.org/Graphics/SVG/1.1/DTD/svg11.dtd"><svg t="1668346615711" class="icon" viewBox="0 0 1024 1024" version="1.1" xmlns="http://www.w3.org/2000/svg" p-id="18392" xmlns:xlink="http://www.w3.org/1999/xlink" width="200" height="200"><path d="M663.7 264.3a96.1 96.1 0 1 0 67.8 28.2 95.5 95.5 0 0 0-67.8-28.2zM686.3 383a32.1 32.1 0 1 1 0-45.3 32.1 32.1 0 0 1 0 45.3z m250.6 53.5L894.4 163a40.1 40.1 0 0 0-33.4-33.4L587.5 87.1a43.2 43.2 0 0 0-6.2-0.5A40.4 40.4 0 0 0 553 98.3L98.3 553a40.1 40.1 0 0 0 0 56.6l316.1 316.1a40.1 40.1 0 0 0 56.6 0L925.7 471a40.1 40.1 0 0 0 11.2-34.5zM442.7 852.1L171.9 581.3l420.6-420.6 234.4 36.4 36.4 234.4z" p-id="18393"></path></svg>