<?xml version="1.0" standalone="no"?><!DOCTYPE svg PUBLIC "-//W3C//DTD SVG 1.1//EN" "http://www.w3.org/Graphics/SVG/1.1/DTD/svg11.dtd"><svg t="1668346599997" class="icon" viewBox="0 0 1024 1024" version="1.1" xmlns="http://www.w3.org/2000/svg" p-id="3502" xmlns:xlink="http://www.w3.org/1999/xlink" width="200" height="200"><path d="M512 160a350.7 350.7 0 0 0-205.7 66.3c-29.4-4.5-57-6.9-82.3-6.9-74 0-128.1 19.8-148.5 60.5-26.1 52.4 8.9 128.6 85.4 206.5-0.6 8.5-0.9 17-0.9 25.6 0 194.4 157.6 352 352 352a350.6 350.6 0 0 0 235.5-90.4 488.1 488.1 0 0 0 52.5 3c74 0 128.1-19.8 148.5-60.5 26-52.2-8.6-127.9-84.5-205.6C863.2 316.8 705.9 160 512 160z m0 72a279.8 279.8 0 0 1 209.8 465.4 747.3 747.3 0 0 1-75.4-16.9c-61.7-17-125.3-41.8-188.8-73.6a1079.7 1079.7 0 0 1-152.9-92.2 795.7 795.7 0 0 1-67.8-55.1A271.2 271.2 0 0 1 254 403a279.7 279.7 0 0 1 258-171zM143.7 339.6c-5.5-14.8-5.5-24.1-3.8-27.5 2.7-5.4 23.9-20.7 84.1-20.7l13.5 0.3a348.2 348.2 0 0 0-58.7 106.5c-20.6-26.1-30.4-45.8-35.1-58.6zM621 770a280.1 280.1 0 0 1-386.2-217.9c53.9 42.2 118.4 83.2 190.6 119.2 77.5 38.8 154.3 67.1 224.4 84.5A274.8 274.8 0 0 1 621 770z m263.1-86.1c-2.6 5.1-22.3 19.5-77.4 20.6a345.8 345.8 0 0 0 44.6-98.7c16.5 22.2 24.8 39.1 29 50.6 5.5 14.8 5.5 24.1 3.8 27.5z" p-id="3503"></path></svg>