<?xml version="1.0" standalone="no"?><!DOCTYPE svg PUBLIC "-//W3C//DTD SVG 1.1//EN" "http://www.w3.org/Graphics/SVG/1.1/DTD/svg11.dtd"><svg t="1638041476248" class="icon" viewBox="0 0 1024 1024" version="1.1" xmlns="http://www.w3.org/2000/svg" p-id="12254" xmlns:xlink="http://www.w3.org/1999/xlink" width="200" height="200"><defs><style type="text/css"></style></defs><path d="M532.960893 544.070416c-4.776793 7.736195-13.31219 12.890588-22.972201 12.890588L312.090483 556.961004c-14.875802 0-26.941606-11.977799-26.941606-26.975375 0-14.902408 12.153808-26.976398 26.941606-26.976398l179.87881 0L491.969293 251.296373c0-14.937201 11.977799-27.047006 26.976398-27.047006 14.893198 0 26.976398 11.908214 26.976398 27.047006l0 269.62481C545.923112 530.74083 540.759509 539.336602 532.960893 544.070416zM509.953899 961.610044c248.304226 0 449.610044-201.295586 449.610044-449.610044 0-248.312412-201.305819-449.610044-449.610044-449.610044-248.303202 0-449.610044 201.297632-449.610044 449.610044C60.343855 760.314459 261.649674 961.610044 509.953899 961.610044z" p-id="12255"></path></svg>