<?xml version="1.0" standalone="no"?><!DOCTYPE svg PUBLIC "-//W3C//DTD SVG 1.1//EN" "http://www.w3.org/Graphics/SVG/1.1/DTD/svg11.dtd"><svg t="1645755340765" class="icon" viewBox="0 0 1024 1024" version="1.1" xmlns="http://www.w3.org/2000/svg" p-id="19006" xmlns:xlink="http://www.w3.org/1999/xlink" width="200" height="200"><defs><style type="text/css"></style></defs><path d="M256 810.666667c0 46.933333 38.4 85.333333 85.333333 85.333333h341.333334c46.933333 0 85.333333-38.4 85.333333-85.333333V384c0-46.933333-38.4-85.333333-85.333333-85.333333H341.333333c-46.933333 0-85.333333 38.4-85.333333 85.333333v426.666667zM768 170.666667h-106.666667l-30.293333-30.293334c-7.68-7.68-18.773333-12.373333-29.866667-12.373333H422.826667c-11.093333 0-22.186667 4.693333-29.866667 12.373333L362.666667 170.666667H256c-23.466667 0-42.666667 19.2-42.666667 42.666666s19.2 42.666667 42.666667 42.666667h512c23.466667 0 42.666667-19.2 42.666667-42.666667s-19.2-42.666667-42.666667-42.666666z" p-id="19007"></path></svg>